<?xml version="1.0" encoding="utf-8"?>
<!-- Generator: Adobe Illustrator 24.1.2, SVG Export Plug-In . SVG Version: 6.00 Build 0)  -->
<svg version="1.1" id="Слой_1" xmlns="http://www.w3.org/2000/svg" xmlns:xlink="http://www.w3.org/1999/xlink" x="0px" y="0px"
	 viewBox="0 0 638 399.7" style="enable-background:new 0 0 638 399.7;" xml:space="preserve">
<style type="text/css">
	.st0{fill:#FFFEEB;}
	.st1{opacity:0.4;fill:#0086DC;enable-background:new    ;}
	.st2{fill:#70BEF2;}
	.st3{fill:#B3EBFF;}
	.st4{fill:#182E5A;}
	.st5{fill:#4A8DCE;}
	.st6{fill:#FFFFFF;}
	.st7{fill:#F7F1EB;}
	.st8{fill:#F7B43E;}
	.st9{fill:#E6D0BE;}
	.st10{fill:#FFA194;}
	.st11{fill:#DB5349;}
	.st12{fill:#FFD66B;}
	.st13{fill:#F4756E;}
	.st14{fill:#FFB14C;}
	.st15{fill:#E87323;}
	.st16{fill:#FC5649;}
	.st17{fill:#F7BC5D;}
	.st18{fill:none;stroke:#F7BC5D;stroke-width:1.2;stroke-miterlimit:10;}
	.st19{fill:none;stroke:#FFFFFF;stroke-width:1.2;stroke-miterlimit:10;}
	.st20{fill:#00497F;}
	.st21{fill:#449CD8;}
</style>
<path class="st0" d="M537.8,142.6c0,1.5-1.2,2.7-2.7,2.7s-2.7-1.2-2.7-2.7s1.2-2.7,2.7-2.7S537.8,141.1,537.8,142.6z"/>
<path class="st1" d="M125,361.4c-230.2-103.1,69.2-217.8,144.6-289.3C298.5,44.7,398.1-9,505.2,20.4
	c159.4,43.8,85.8,273.8-74.7,336.7C292.2,411.4,183.8,387.7,125,361.4z"/>
<rect x="225.3" y="71.1" class="st2" width="287.7" height="217.9"/>
<rect x="234.7" y="80" class="st3" width="269.4" height="182.3"/>
<path class="st3" d="M374.7,274.6c0,3-2.4,5.4-5.4,5.4s-5.4-2.4-5.4-5.4s2.4-5.4,5.4-5.4C372.2,269.2,374.7,271.6,374.7,274.6z"/>
<path class="st2" d="M513,295L513,295c0,0-10.1,22.5-22.6,22.5H189.1c-12.5,0-22.6-10.3-22.6-22.5l0,0H513z"/>
<path class="st4" d="M437.3,315.3c-0.1,0-0.2-0.1-0.2-0.2s0.1-0.2,0.2-0.2c9.8,0,17.7-7.9,17.7-17.7c0-0.1,0.1-0.2,0.2-0.2
	s0.2,0.1,0.2,0.2C455.5,307.2,447.3,315.3,437.3,315.3z"/>
<path class="st4" d="M322.4,309.8h-33.8c-5.4,0-9.8-4.3-9.8-9.6c0-0.1,0.1-0.2,0.2-0.2h53c0.1,0,0.2,0.1,0.2,0.2
	C332.2,305.5,327.8,309.8,322.4,309.8z M279.2,300.4c0.1,5,4.3,8.9,9.4,8.9h33.8c5.1,0,9.3-4,9.4-8.9H279.2z"/>
<rect x="269.3" y="143.3" class="st5" width="95.1" height="81.1"/>
<rect x="238.6" y="132.1" class="st6" width="114.5" height="81.1"/>
<rect x="342.6" y="61.1" class="st5" width="85.3" height="63.2"/>
<rect x="338.9" y="54.9" class="st7" width="82" height="63.4"/>
<g>
	<path class="st2" d="M344.2,146.6h-77.5c-0.8,0-1.5,0.6-1.5,1.6v6.1v45v6.1c0,1,0.7,1.8,1.5,1.8h77.5c0.8,0,1.6-0.8,1.6-1.8v-6.1
		v-45v-6.1C345.8,147.2,345,146.6,344.2,146.6z"/>
	<circle class="st6" cx="305.5" cy="176.3" r="15"/>
	<g>
		<g>
			<path class="st4" d="M341.7,202.2H269c-0.1,0-0.1,0.1-0.1,0.1c0,0.1,0.1,0.1,0.1,0.1h72.8c0.1,0,0.1-0.1,0.1-0.1
				C341.9,202.2,341.8,202.2,341.7,202.2z"/>
		</g>
	</g>
	<path class="st4" d="M276.4,200.6c-1,0-1.9,0.8-1.9,1.9c0,1,0.8,1.9,1.9,1.9s1.9-0.8,1.9-1.9C278.3,201.5,277.5,200.6,276.4,200.6z
		"/>
	<polygon class="st8" points="301.7,183.3 311.2,176.3 301.7,169.3 	"/>
</g>
<g>
	<ellipse class="st8" cx="235.5" cy="83.2" rx="39.8" ry="39.9"/>
	<path class="st7" d="M232.4,121.6c-22.1,0-40-18-40-40.1s18-40.1,40-40.1s40,18,40,40.1C272.5,103.6,254.5,121.6,232.4,121.6z
		 M232.4,41.8c-21.8,0-39.6,17.8-39.6,39.6c0,21.9,17.8,39.6,39.6,39.6c21.8,0,39.6-17.8,39.6-39.6S254.3,41.8,232.4,41.8z"/>
	<g>
		<polygon class="st6" points="234.1,90.2 268.4,78.3 233.3,69.3 199,81.2 		"/>
		<g>
			<path class="st9" d="M261.6,94.9L261.6,94.9c-0.1,0-0.2-0.1-0.2-0.2l0.1-13.7l-9.8-2.3c-0.1,0-0.2-0.1-0.2-0.3
				c0-0.1,0.1-0.2,0.3-0.2l10,2.3c0.1,0,0.2,0.1,0.2,0.2l-0.1,13.8C261.9,94.8,261.8,94.9,261.6,94.9z"/>
			<polygon class="st6" points="261.6,87.9 264.1,100.8 257.7,100.3 			"/>
		</g>
		<polygon class="st6" points="234.1,92 220.1,88.4 220,99.4 248.2,99.1 248,87.1 		"/>
	</g>
</g>
<g>
	<rect x="379.9" y="147.5" class="st6" width="196.3" height="130.1"/>
	<g>
		<polygon class="st5" points="585.7,132.8 371.1,132.8 371.1,146.8 585.7,146.8 585.7,133 		"/>
		<path class="st5" d="M585.7,286H371.1c-0.2,0-0.3-0.1-0.3-0.3V132.8c0-0.2,0.1-0.3,0.3-0.3h214.7c0.2,0,0.3,0.1,0.3,0.3v152.9
			C586.1,285.9,585.9,286,585.7,286z M371.4,285.4h214V133.1h-214V285.4z"/>
		<ellipse class="st6" cx="379.9" cy="139.9" rx="3.1" ry="3.1"/>
		<ellipse class="st6" cx="389.9" cy="139.9" rx="3.1" ry="3.1"/>
		<ellipse class="st6" cx="399.8" cy="139.9" rx="3.1" ry="3.1"/>
	</g>
	<g>
		<rect x="422.8" y="183" class="st3" width="63.6" height="4"/>
		<rect x="422.8" y="172.9" class="st3" width="63.6" height="4"/>
		<rect x="424.8" y="193.9" class="st3" width="48.2" height="4.1"/>
		<rect x="422.8" y="162.7" class="st3" width="63.6" height="4"/>
	</g>
</g>
<path class="st4" d="M513.9,214c-14.4,27.6-29.7,57.8-59.2,60.2c-45.8,3.7-55.3-29.6-64.7-62.7l31.4-12.3
	c7.1,15.9,13.6,28.8,26.7,27.9c15.2-1,26.7-17.1,36-27.8L513.9,214z"/>
<path class="st10" d="M411.2,174.4c-0.6-1.5-3.8-4.3-5.2-5c-6.5-3.4-15.4-4.8-20.2-5.9c-10-2.3-10.7,4.3-10.8,5l41.6,20L411.2,174.4
	z"/>
<g>
	<path class="st4" d="M408,175.6l-82.8-22.3c-0.5-0.1-0.8-0.6-0.7-1.1s0.6-0.8,1.1-0.7l83.6,18.7c1.5,0.3,2.4,1.8,2.1,3.3
		C411,175,409.5,175.9,408,175.6C408.1,175.6,408,175.6,408,175.6z"/>
</g>
<path class="st10" d="M390,211.5l-1.4-6.1c-2.6-0.9-5.6-2.8-5.9-7.4c0,0-5.4-4.7-3-10.2c0,0-4.5-6.6-1.8-11.9c0,0-6.7-5.5-4-9.5
	c2.9-4.1,9.2-1.9,18,7.9l21.3,4.2l6,16l2.2,4.7L390,211.5z"/>
<path class="st11" d="M402.5,203.6c-5.8,0-10.9-3.6-14.6-10.3c-2.4-4.4-3.5-8.8-3.8-9.9l-6.9-6.9c-0.3-0.3-0.3-0.9,0-1.3
	c0.3-0.3,0.9-0.3,1.3,0l7.1,7.1c0.1,0.1,0.2,0.3,0.2,0.4c0,0,1.1,4.9,3.7,9.7c3.4,6.2,7.8,9.4,13,9.4c0.5,0,0.9,0.4,0.9,0.9
	C403.4,203.2,403,203.6,402.5,203.6z"/>
<path class="st11" d="M387.5,191.5c-5.7,0-8.4-2.9-8.5-3.1c-0.3-0.4-0.3-0.9,0.1-1.3c0.4-0.3,0.9-0.3,1.3,0.1
	c0.1,0.1,2.3,2.5,7.2,2.5c0.5,0,0.9,0.4,0.9,0.9C388.4,191.1,388,191.5,387.5,191.5z"/>
<path class="st11" d="M389.1,200.3c-4.1,0-6.7-1.4-6.8-1.4c-0.4-0.2-0.6-0.8-0.4-1.2s0.8-0.6,1.2-0.4c0,0,3.8,2,9.5,0.9
	c0.5-0.1,1,0.2,1,0.7c0.1,0.5-0.2,1-0.7,1C391.5,200.2,390.3,200.3,389.1,200.3z"/>
<path class="st11" d="M391.5,206.6c-1.7,0-3-0.3-3.1-0.3c-0.5-0.1-0.8-0.6-0.7-1.1s0.6-0.8,1.1-0.7c1.2,0.3,4.7,0.7,6.3-0.6
	c0.7-0.5,1-1.3,1-2.4c0-0.5,0.4-0.9,0.9-0.9s0.9,0.4,0.9,0.9c0,1.6-0.6,2.9-1.7,3.8C394.9,206.3,393.1,206.6,391.5,206.6z"/>
<path class="st11" d="M383.8,167.9c-0.2,0-0.4-0.1-0.6-0.2c-3.3-2.6-5.9-2.3-6-2.3c-0.5,0.1-0.9-0.3-1-0.7c-0.1-0.5,0.3-0.9,0.7-1
	c0.1,0,3.4-0.5,7.3,2.7c0.4,0.3,0.4,0.9,0.1,1.3C384.3,167.7,384.1,167.9,383.8,167.9z"/>
<path class="st4" d="M568.5,208.4c-20-19.9-24.9-21.5-40.8-21.3c-13.7,0.2-27.7-1-34.5,2.6c-2.1,1.1-16,11.2-17.8,30.6
	c-1.1,12.9,2.7,27.1,2.7,27.1v33.9h78c14.3,11.5,32.3,10.1,41.2-1C615.9,257.2,581.1,220.9,568.5,208.4z"/>
<path class="st5" d="M515.4,220.9c-0.4,0-0.8,0-1.2,0c-8.6-0.4-15.5-4.9-20-12.9c-2.4-4.3-4.1-9.6-5.1-15.8c-0.1-0.5,0.3-0.9,0.7-1
	c0.5-0.1,0.9,0.3,1,0.7c0.6,4.1,2,10,4.9,15.2c4.2,7.4,10.6,11.6,18.5,12c0.4,0,0.7,0,1.1,0c7,0,13.8-3.5,20.3-10.3
	c4.3-4.6,8.4-10.6,12.1-17.9c0.2-0.4,0.8-0.6,1.2-0.4c0.4,0.2,0.6,0.8,0.4,1.2c-3.8,7.4-8,13.6-12.4,18.3
	C530.2,217.2,522.9,220.9,515.4,220.9z"/>
<path class="st3" d="M527.7,187.1c-13,0.2-26.4-0.9-33.5,2.1c1,8.7,4.9,25.5,20.3,26.3c14,0.7,24.6-15.4,30.1-26.2
	C539.6,187.3,534.7,187,527.7,187.1z"/>
<path class="st0" d="M402.2,215.5c0,2.1-1.7,3.8-3.8,3.8c-2.1,0-3.8-1.7-3.8-3.8s1.7-3.8,3.8-3.8S402.2,213.4,402.2,215.5z"/>
<path class="st5" d="M597.4,280.3c5.3-6.7,6.2-14.4,4.5-22.3c-0.8-0.1-1.6-0.1-2.3-0.1c-14.2,0-25.7,11.5-25.7,25.7
	c0,1.9,0.2,3.8,0.6,5.7C583.6,290.1,592.1,286.9,597.4,280.3z"/>
<path class="st5" d="M443.7,255.7c-9.3,0-17.5,5-22,12.5c8.3,4.8,18.9,7.2,33,6c4.5-0.4,8.7-1.4,12.6-2.9
	C463.3,262.1,454.3,255.7,443.7,255.7z"/>
<path class="st10" d="M527.7,187.1c-8.5,0.1-17.1-0.3-24,0.2c2.4,3.7,6.2,7.9,12,8.3c7.2,0.6,12.5-3.8,16.4-8.6
	C530.7,187.1,529.3,187.1,527.7,187.1z"/>
<path class="st12" d="M494.2,264.5h33.9c3.3,0,6-2.7,6-6v-47.2c0-3.3-2.7-6-6-6h-33.9c-3.3,0-6,2.7-6,6v47.2
	C488.2,261.8,490.9,264.5,494.2,264.5z"/>
<path class="st4" d="M502.2,207.9h17.9c1.5,0,2.7-1.2,2.7-2.7s-1.2-2.7-2.7-2.7h-17.9c-1.5,0-2.7,1.2-2.7,2.7
	S500.7,207.9,502.2,207.9z"/>
<g>
	<path class="st10" d="M499.8,228.3c1-1.7,2.9-2.6,6.2-0.9c-3.8-2.2-5.2-4.8-3.8-7.5s5-2.9,8.8,0c-1.6-2.1-2.6-4.6-0.9-6.4
		c3.7-4,8.6-0.9,23.9,7.2v-10.8c0,0,6.4,7.2,9.3,15.4l12.8,8.9l-19.2,27l-11.9-8.6c0,0-6.8-1.2-12.3-2.4c-8-1.7-9.4-3.9-8.5-6
		c0.8-2.1,3.4-2.3,10.6-0.5c0,0-7.8-4.2-10.7-6.6C499.1,232.9,498.7,230,499.8,228.3z"/>
	<path class="st11" d="M527.1,229.4c-0.1,0-0.3,0-0.4-0.1l-16.1-8.7c-0.4-0.2-0.6-0.8-0.4-1.2s0.8-0.6,1.2-0.4l16.1,8.7
		c0.4,0.2,0.6,0.8,0.4,1.2C527.7,229.2,527.4,229.4,527.1,229.4z"/>
	<path class="st11" d="M521.5,236.6c-0.1,0-0.3,0-0.4-0.1l-16.1-8.7c-0.4-0.2-0.6-0.8-0.4-1.2s0.8-0.6,1.2-0.4l16.1,8.7
		c0.4,0.2,0.6,0.8,0.4,1.2S521.8,236.6,521.5,236.6z"/>
	<path class="st11" d="M519,246.7c-0.1,0-0.3,0-0.4-0.1l-6.5-3.1c-0.4-0.2-0.6-0.7-0.4-1.2c0.2-0.4,0.7-0.6,1.2-0.4l6.5,3.1
		c0.4,0.2,0.6,0.7,0.4,1.2C519.7,246.5,519.4,246.7,519,246.7z"/>
	<path class="st11" d="M534,220.5l1.2,0.7c0.8,0.4,1.7-0.3,1.4-1.1l-2.6-7.8V220.5z"/>
</g>
<path class="st5" d="M556.2,282.3c-0.2,0-0.5-0.1-0.6-0.3l-19.2-20.1c-0.3-0.3-0.3-0.8-0.1-1.1l19.2-27.2c0.3-0.4,0.8-0.5,1.2-0.2
	c6,4.1,30.8,15.7,31,15.8c0.4,0.2,0.6,0.7,0.4,1.2c-0.2,0.4-0.7,0.6-1.2,0.4c-1-0.5-23.4-10.9-30.5-15.5l-18.3,25.9l18.7,19.6
	c0.3,0.4,0.3,0.9,0,1.3C556.6,282.2,556.4,282.3,556.2,282.3z"/>
<g>
	<path class="st4" d="M494.8,155.5c0,12,9.7,21.7,21.7,21.7s21.7-9.7,21.7-21.7s-9.7-21.7-21.7-21.7S494.8,143.5,494.8,155.5z"/>
	<path class="st4" d="M485.1,153.3c0,12.7,6.1,22.8,18.8,22.8c12.7,0,23-8.2,23-20.9s-10.4-21.4-10.4-21.4
		C497,130.6,485.1,138.9,485.1,153.3z"/>
	<path class="st4" d="M484.7,144.9c-0.2,0-0.3,0-0.5-0.1c-0.6-0.3-0.9-1-0.7-1.6c2-4.8,5.6-8.1,10.5-9.9c4.8-1.7,11.2-2,18.8-0.7
		c0.7,0.1,1.1,0.8,1,1.4c-0.1,0.7-0.8,1.1-1.4,1c-14.3-2.3-23,0.6-26.6,9.1C485.7,144.6,485.2,144.9,484.7,144.9z"/>
	<path class="st10" d="M507,191.8v-11.6c-16.6,0-18.4-6.9-17.7-20.9c0.3-5.9,1.2-14.1,9.2-20.1c10.7-8,26.1-3.4,30.4,9.3
		c0.1,0.2,0.1,0.3,0.2,0.5c2.6,8.1,3.4,15.5-1.5,20.7v22.1H507L507,191.8z"/>
	<path class="st11" d="M515.6,181.8c-1.3,1.8-3.9,4.4-8.3,5.9v-7.9l7.2-0.1C515.6,179.6,516.2,180.9,515.6,181.8z"/>
	<path class="st4" d="M500.9,137.6c2.1-1.3,4.4-3.3,7.5-3.6c10.5-1.1,23.4,0.8,26.3,14.5c1.6,7.4,0.7,19.8-7.3,25.7
		c-11.4,0-12.3-12-12.3-12C506.1,158.8,500.4,146.7,500.9,137.6z"/>
	<g>
		<path class="st10" d="M521.1,160.6c0.8,3.2-1.1,6.5-4.3,7.4c-3.2,0.8-6.5-1.1-7.4-4.3c-0.8-3.2,1.1-6.5,4.3-7.4
			C516.9,155.4,520.2,157.3,521.1,160.6z"/>
		<path class="st11" d="M518.8,161.2c0.5,2-0.7,4-2.6,4.5c-2,0.5-4-0.7-4.5-2.6c-0.5-2,0.7-4,2.6-4.5
			C516.3,158,518.3,159.2,518.8,161.2z"/>
	</g>
	
		<ellipse transform="matrix(0.1036 -0.9946 0.9946 0.1036 347.0353 636.9758)" class="st4" cx="526.9" cy="126" rx="15.9" ry="15.9"/>
	<path class="st4" d="M529.2,143.1c-9.5,0-17.1-7.7-17.1-17.1c0-9.5,7.7-17.1,17.1-17.1c9.5,0,17.1,7.7,17.1,17.1
		C546.4,135.5,538.7,143.1,529.2,143.1z M529.2,111.3c-8.1,0-14.7,6.6-14.7,14.7c0,8.1,6.6,14.7,14.7,14.7s14.7-6.6,14.7-14.7
		C543.9,117.9,537.3,111.3,529.2,111.3z"/>
	<path class="st4" d="M501.2,155.7c-0.2,0-0.5-0.1-0.7-0.2c-0.6-0.4-0.8-1.1-0.4-1.7s1.5-1.7,3.2-1.7c1.8,0,2.9,1.1,3.3,1.8
		l-2.1,1.3c0,0-0.4-0.6-1.1-0.6c-0.8,0-1.1,0.5-1.1,0.6C502.1,155.5,501.7,155.7,501.2,155.7z"/>
	<path class="st11" d="M494.9,166.3c-0.3,0-0.6-0.1-0.9-0.3l-2.5-2.4c-0.5-0.5-0.7-1.3-0.4-2s0.9-1.1,1.7-1.1h1.5
		c0.3-1.3,0.7-3.8-0.8-4.9c-0.6-0.4-0.7-1.2-0.3-1.7c0.4-0.6,1.2-0.7,1.7-0.3c3.6,2.7,1.5,8.4,1.4,8.6c-0.2,0.5-0.6,0.8-1.2,0.8
		h-0.7l1.3,1.3c0.5,0.5,0.5,1.3,0,1.8C495.6,166.2,495.3,166.3,494.9,166.3z"/>
	<path class="st4" d="M493.3,158.8c0,0.7-0.6,1.3-1.3,1.3c-0.7,0-1.3-0.6-1.3-1.3s0.6-1.3,1.3-1.3
		C492.7,157.5,493.3,158.1,493.3,158.8z"/>
	<path class="st4" d="M504.7,158.8c0,0.7-0.6,1.3-1.3,1.3c-0.7,0-1.3-0.6-1.3-1.3s0.6-1.3,1.3-1.3S504.7,158.1,504.7,158.8z"/>
	<path class="st11" d="M495.5,170.1c-0.2,0-3.5-0.5-3.5-0.5c-0.7-0.1-1.2-0.7-1.1-1.4s0.7-1.2,1.4-1.1l3.4,0.5
		c0.7,0.1,1.2,0.7,1.1,1.4C496.6,169.7,496.1,170.1,495.5,170.1z"/>
	<path class="st4" d="M494.2,155.7h-4.4c-0.7,0-1.2-0.6-1.2-1.3s0.6-1.2,1.2-1.2h4.4c0.7,0,1.2,0.6,1.2,1.3
		C495.5,155.2,494.9,155.7,494.2,155.7z"/>
	<path class="st13" d="M508,165.7c-0.4,2-2.3,3.3-4.3,2.9s-3.3-2.3-2.9-4.3s2.3-3.3,4.3-2.9C507,161.8,508.3,163.7,508,165.7z"/>
	<path class="st5" d="M511.7,153.3c-0.3,0-0.6-0.1-0.9-0.4c-4.5-4.5-4.6-12.5-4.6-12.9c0-0.7,0.6-1.2,1.2-1.2c0.7,0,1.2,0.6,1.2,1.2
		c0,0.1,0.1,7.4,3.8,11.1c0.5,0.5,0.5,1.3,0,1.8C512.3,153.1,512,153.3,511.7,153.3z"/>
	<path class="st5" d="M516.4,149.1c-0.4,0-0.8-0.2-1-0.6c-1.7-2.6-2.2-6.9-2.2-7.1c-0.1-0.7,0.4-1.3,1.1-1.4
		c0.7-0.1,1.3,0.4,1.4,1.1c0,0,0.5,3.9,1.8,6c0.4,0.6,0.2,1.4-0.4,1.7C516.9,149,516.7,149.1,516.4,149.1z"/>
</g>
<path class="st4" d="M88.6,377.8h84.9l-6.8-33.5L69,344.2v14C69,369,77.8,377.8,88.6,377.8z"/>
<path class="st4" d="M172.7,223c3.1,12.4-4.4,25.1-16.8,28.2c-12.4,3.1-25.1-4.4-28.2-16.8c-3.1-12.4,4.4-25.1,16.8-28.2
	C156.9,203,169.5,210.5,172.7,223z"/>
<path class="st4" d="M153.3,252c-11.1,0-21.2-7.5-24-18.7c-1.6-6.4-0.7-13.1,2.7-18.8s8.8-9.7,15.2-11.3c13.3-3.4,26.8,4.7,30.1,18
	c3.4,13.3-4.7,26.8-18,30.1C157.4,251.7,155.3,252,153.3,252z M153.3,205.5c-1.8,0-3.5,0.2-5.3,0.7c-5.6,1.4-10.3,4.9-13.3,9.9
	s-3.8,10.8-2.4,16.4c2.9,11.6,14.7,18.6,26.3,15.7c11.6-2.9,18.6-14.7,15.7-26.3C171.8,212,163,205.5,153.3,205.5z"/>
<path class="st4" d="M112.6,220.1c3.1,12.4-4.4,25.1-16.8,28.2c-12.4,3.1-25.1-4.4-28.2-16.8c-3.1-12.4,4.4-25.1,16.8-28.2
	C96.8,200.2,109.4,207.7,112.6,220.1z"/>
<path class="st4" d="M211.1,243.5c4.2,16.8-5.9,33.8-22.7,38.1c-16.8,4.2-33.8-5.9-38.1-22.7c-4.2-16.8,5.9-33.8,22.7-38.1
	C189.8,216.5,206.9,226.7,211.1,243.5z"/>
<path class="st4" d="M118.8,160.5c17.5,0,35.9,7.5,36.7,30.4c0.5,15.1-12.5,22.6-27.6,22.7c-2.9,0.9-5.8,1.4-8.8,1.4
	c-15.1,0.1-27.3-12.1-27.4-27.1C91.6,172.9,103.7,160.5,118.8,160.5z"/>
<path class="st10" d="M131.1,238.1v-15.9c20.9-0.1,23.1-8.8,22.1-26.4c-0.4-7.4-1.6-17.7-11.7-25.2c-13.5-10-32.9-4.1-38.2,11.9
	c-0.1,0.2-0.1,0.4-0.2,0.6c-3.2,10.2-4.2,19.5,2.1,26l0.1,27.9L131.1,238.1z"/>
<path class="st11" d="M118.9,224.3c1.7,2.6,5.3,6.9,12.1,9.2v-11.3l-10.9-0.1C119,222,118.3,223.3,118.9,224.3z"/>
<polygon class="st4" points="91.6,186.8 91.7,204.5 115.7,222 115.5,201.4 "/>
<path class="st11" d="M143.9,206.2c-0.3,0-0.6-0.1-0.9-0.3c-0.7-0.5-0.9-1.5-0.4-2.2l1.7-2.4c-0.1-0.2-1.9-0.7-1.9-0.7
	c-0.5-0.1-0.9-0.5-1.1-1c-0.1-0.2-1.4-4.5,2.1-8.7c0.6-0.7,1.5-0.7,2.2-0.2c0.7,0.6,0.7,1.5,0.2,2.2c-1.6,1.9-1.7,3.9-1.7,4.9
	l0.9,0.2c1,0.3,1.9,1,2.2,2c0.4,1,0.2,2.1-0.4,3l-1.7,2.4C144.9,206,144.4,206.2,143.9,206.2z"/>
<path class="st4" d="M129.3,192.3l-2.7-1.6c0.5-0.8,1.9-2.2,4.1-2.3c2.2,0,3.6,1.3,4.1,2.1l-2.6,1.7c0,0-0.5-0.7-1.4-0.7
	C129.8,191.6,129.3,192.2,129.3,192.3z"/>
<path class="st4" d="M144.7,193.5c-0.3,0-0.5-0.1-0.8-0.2c-0.8-0.4-1-1.4-0.6-2.1c0.5-0.8,1.9-2.2,4.1-2.3c2.2,0,3.6,1.3,4.1,2.1
	l-2.6,1.6c0,0-0.5-0.7-1.4-0.7c-1,0-1.4,0.7-1.4,0.7C145.7,193.2,145.2,193.5,144.7,193.5z"/>
<path class="st4" d="M144.5,197c0.1,0.9,0.9,1.4,1.8,1.3c0.9-0.1,1.4-1,1.3-1.8c-0.1-0.9-1-1.4-1.8-1.3
	C145,195.3,144.4,196.2,144.5,197z"/>
<path class="st4" d="M129.1,197.1c0.1,0.9,1,1.4,1.8,1.3c0.9-0.1,1.4-1,1.3-1.8c-0.1-0.9-0.9-1.4-1.8-1.3
	C129.6,195.4,129,196.2,129.1,197.1z"/>
<path class="st13" d="M125.3,205.9c0.9,2.4,3.6,3.7,6,2.8s3.7-3.6,2.8-6s-3.5-3.7-6-2.8C125.7,200.8,124.4,203.4,125.3,205.9z"/>
<path class="st13" d="M152.5,199.6c0.3-0.1,0.5-0.2,0.8-0.2c0.1,3.4,0,6.4-0.4,9.1c-1.4-0.4-2.6-1.4-3.1-2.9
	C148.8,203.2,150.1,200.5,152.5,199.6z"/>
<path class="st0" d="M146.5,206.4h-9.6c-0.8,0-1.4,0.8-1.1,1.6c0.6,1.5,2.1,3.6,5.7,3.9c3.8,0.4,5.5-2.2,6.1-3.9
	C147.9,207.2,147.3,206.4,146.5,206.4z"/>
<path class="st4" d="M117,164.6c9.7-3.3,15.8-1.1,18,0.1c14.6,7.8,17.5,19.8,17.5,19.8h-2.2c-0.5,0-1-0.4-1.1-0.9
	c-1.8-6.2-6.4-9.6-6.4-9.6c1.7,1.9,3.3,6.6,4,9c0.2,0.7-0.3,1.5-1.1,1.5h-16c-0.6,0-1.1-0.5-1.2-1.1c-0.3-5.5-2.4-10.2-2.4-10.2
	c0.2,20.1-10.8,27.7-10.8,27.7s-17.2-1.6-17.1-7.5C98.4,187.5,107.6,167.9,117,164.6z"/>
<g>
	<path class="st10" d="M107.9,202.9c1.1,4,5.3,6.4,9.3,5.4c4-1.1,6.4-5.3,5.4-9.3c-1.1-4-5.3-6.4-9.3-5.4
		C109.2,194.6,106.8,198.8,107.9,202.9z"/>
	<path class="st11" d="M110.8,202.1c0.7,2.5,3.2,4,5.7,3.3s3.9-3.2,3.3-5.7c-0.7-2.5-3.2-4-5.7-3.3S110.1,199.6,110.8,202.1z"/>
</g>
<path class="st4" d="M120.4,162.1c-1.8,0-2.8-0.7-3.3-1.4c-1.2-1.4-1-3.3-0.9-3.5l3.1,0.5c0,0.2,0,0.7,0.2,0.9s0.7,0.3,1,0.3
	c1.8,0,2.2-1.5,2.3-1.8l1.5,0.3l1.5,0.3C125.5,159.3,124,162.1,120.4,162.1L120.4,162.1z"/>
<path class="st0" d="M115.1,206.4c2.7-0.3,5.1,1.7,5.4,4.5c0.3,2.7-1.7,5.1-4.5,5.4c-2.7,0.3-5.1-1.7-5.4-4.5
	C110.4,209.1,112.4,206.7,115.1,206.4z"/>
<g>
	<path class="st14" d="M156.3,245.9c13.1,13.4,31.8,25.6,50.5,22.2c14.9-2.7,25.9-21.2,27.8-41l38.6,1.9
		c1.8,39.4-0.1,81.2-51.4,93.8c-33,8.2-60.2-12.3-85.9-37.1L156.3,245.9z"/>
	<path class="st15" d="M136,285.8l20.3-39.9c6.2,6.3,13.6,12.4,21.7,16.7c1.2,3.6,2.2,7.6,3,11.8c3.7,19.9-1.9,35-1.9,35l1.1,9.1
		C164.5,311.6,150,299.4,136,285.8z"/>
	<path class="st16" d="M246.4,308.3c0.7,0.9,1.4,1.9,1.9,2.9c-6.9,5-15.5,9-26.4,11.7c-10.3,2.5-20,2.3-29.3,0
		c0.9-7.8,4.9-15.3,11.7-20.5C217.5,292.4,236.4,295,246.4,308.3z"/>
</g>
<path class="st14" d="M73.7,245.6c-6.9,5.8-13.4,14.4-19.5,27.4c-11.4,24.3-15.6,51.1-6.5,73.1c1.8,4.4,4.4,9,6.1,11.4
	c13.5,20.1,33.6,24.2,51.4,23.7c31-0.9,43.6-19.4,56.5-36.1l-0.8-0.7h5.8v-39.3c0,0,6.3-10.5,5-25.2c-2.2-26.3-19.6-39.6-26.8-42.2
	c-2.8-1-10.6-3.4-24-3.4C103.1,234.1,87.5,234.1,73.7,245.6L73.7,245.6z"/>
<path class="st15" d="M121.7,262.9c-7.3,0-15-1.4-23.2-4.2c-6.8-2.3-13.5-5.5-19.4-9.2l-4.9-3.1c-0.5-0.3-0.6-0.9-0.3-1.4
	s0.9-0.6,1.4-0.3l4.9,3.1c5.8,3.6,12.4,6.8,19,9c7.9,2.7,15.5,4.1,22.5,4.1c2.4,0,4.8-0.2,7-0.5c6.5-0.9,12-2.8,16.8-5.6
	c4.4-2.6,7.7-5.8,9.9-8l1.5-1.5c0.4-0.4,1-0.4,1.4,0s0.4,1,0,1.4l-1.5,1.5c-2.2,2.2-5.6,5.5-10.3,8.3c-5,3-10.7,4.9-17.5,5.9
	C126.7,262.8,124.2,262.9,121.7,262.9z"/>
<path class="st0" d="M152.6,242.2c-3-2.4-5.8-3.9-7.7-4.7c-2.8-1-10.6-3.4-24-3.4c-15.3,0-28.9-0.1-41.2,7.2l3.3,2.1
	c5.4,3.4,11.6,6.4,17.9,8.5c7.4,2.5,14.4,3.8,20.8,3.8c2.2,0,4.3-0.1,6.3-0.4c5.8-0.8,10.7-2.5,14.9-4.9c3.9-2.3,6.8-5.1,8.9-7.2
	L152.6,242.2z"/>
<path class="st10" d="M144.9,237.6c-2.8-1-10.6-3.4-24-3.4c-12.6,0-24.1-0.1-34.6,4c10.8,6.8,27.3,12.9,40.8,11
	c11.1-1.6,15.7-6,20.3-10.4C146.4,238.2,145.6,237.8,144.9,237.6z"/>
<path class="st4" d="M88.1,233c2.2,8.2,10.6,13,18.8,10.8s13-10.6,10.8-18.8s-10.6-13-18.8-10.8C90.8,216.4,85.9,224.9,88.1,233z"/>
<path class="st0" d="M145.1,270c0.2,2.4,2.4,4.1,4.7,3.9c2.4-0.2,4.1-2.4,3.9-4.7c-0.2-2.4-2.4-4.1-4.7-3.9
	C146.6,265.5,144.9,267.6,145.1,270z"/>
<path class="st0" d="M149.7,300c0.2,2.4,2.4,4.1,4.7,3.9c2.4-0.2,4.1-2.4,3.9-4.7c-0.2-2.4-2.4-4.1-4.7-3.9
	C151.2,295.5,149.5,297.7,149.7,300z"/>
<path class="st15" d="M140.7,320.5c-0.7-0.1-1.1-0.7-1-1.2c2.9-15.3,0.4-30.2-2.2-40c-2.8-10.6-6.4-17.7-6.4-17.8
	c-0.3-0.5-0.1-1.1,0.4-1.4s1.1-0.1,1.4,0.4c0.1,0.3,3.7,7.3,6.6,18.1c1.7,6.4,2.8,12.7,3.3,18.9c0.6,7.7,0.2,15.1-1.1,22.1
	C141.6,320.2,141.2,320.5,140.7,320.5z"/>
<g>
	<path class="st11" d="M166.6,295.8c0,0,7.9-5.1,12.7-8.2c6.2-4,9.5-4,11.5-0.7c2.1,3.4-0.8,8.9-9.1,14.5
		c-7.6,5.1-13.4-2.9-13.4-2.9L166.6,295.8z"/>
	<g>
		<path class="st10" d="M145.1,311.3c8.5-13.3,18-15.3,25.4-16.8c7.5-1.5,35.2,5,35.9,11.5c0.7,6.4-10.6,4.8-18.2,2.8
			c0,0,9.3,5.7,5.3,11c-2.4,3.1-5.4,2.9-7,1.4c1.6,2.2,1.6,4.7,0.3,6.2c-2,2.3-3.5,3.8-7.3,2.5c1,2.3-0.6,4.7-2,6.2
			c-4.2,4.5-11.1,1.3-11.1,1.3s1.6,6-5.1,7.4l-27.9-22.6L145.1,311.3z"/>
		<path class="st11" d="M188.7,309.7c-0.2,0-0.5-0.1-0.7-0.2c-0.1-0.1-6.2-5.1-9.4-6.2c-0.5-0.2-0.8-0.8-0.6-1.3s0.8-0.8,1.3-0.6
			c3.5,1.3,9.7,6.4,10,6.6c0.4,0.4,0.5,1,0.1,1.4C189.3,309.6,189,309.7,188.7,309.7z"/>
		<path class="st11" d="M168.8,334.4c-0.3,0-0.7-0.2-0.9-0.5c0,0-2.5-3.9-5.7-5.3c-0.5-0.2-0.8-0.8-0.5-1.3c0.2-0.5,0.8-0.8,1.3-0.5
			c3.9,1.7,6.5,5.9,6.6,6.1c0.3,0.5,0.2,1.1-0.3,1.4C169.2,334.4,169,334.4,168.8,334.4z"/>
		<path class="st11" d="M186.5,322.1c-0.3,0-0.6-0.1-0.8-0.4c-0.1-0.1-6.2-8.6-12.8-11c-0.5-0.2-0.8-0.8-0.6-1.3s0.8-0.8,1.3-0.6
			c7.1,2.6,13.5,11.3,13.7,11.7c0.3,0.5,0.2,1.1-0.2,1.4C186.9,322.1,186.7,322.1,186.5,322.1z"/>
		<path class="st11" d="M179.5,330.9c-0.3,0-0.6-0.1-0.8-0.4c-0.1-0.1-7.8-9.1-12.8-11.3c-0.5-0.2-0.8-0.8-0.5-1.3
			c0.2-0.5,0.8-0.8,1.3-0.5c5.5,2.3,13.3,11.4,13.6,11.8c0.4,0.4,0.3,1.1-0.1,1.4C180,330.8,179.8,330.9,179.5,330.9z"/>
	</g>
	<path class="st11" d="M171.1,340.1c-2.1,0-4.2-0.8-5.4-2.1c-1.3-1.5-1.9-2.9-1.6-4.2c0.4-2,2.4-2.8,2.5-2.9c0.5-0.2,1.1,0,1.3,0.5
		s0,1.1-0.5,1.3c-0.3,0.1-1.2,0.7-1.3,1.4c-0.2,0.8,0.5,1.8,1.1,2.4c0.6,0.7,2,1.4,3.8,1.4c1.5,0,3.6-0.5,5.8-2.8
		c1-1.1,2.6-3.2,1.8-5.1c-0.2-0.4-0.1-0.8,0.2-1.1c0.3-0.3,0.7-0.4,1.1-0.3c3.1,1,4.3,0,6.2-2.2c1.1-1.2,0.9-3.3-0.3-4.9
		c-0.3-0.4-0.3-1,0.1-1.4c0.4-0.4,1-0.3,1.4,0c0.6,0.6,1.4,0.8,2.2,0.8c1.2-0.1,2.3-0.8,3.2-2c0.7-0.9,1-1.9,0.8-3
		c-0.6-3.5-5.4-6.7-5.5-6.7c-0.5-0.3-0.6-0.9-0.3-1.4s0.9-0.6,1.4-0.3c0.2,0.1,5.6,3.7,6.4,8.1c0.3,1.7-0.1,3.2-1.2,4.6
		c-1.7,2.2-3.5,2.8-4.7,2.8c-0.3,0-0.7,0-1,0c0.4,1.8,0.1,3.5-1,4.8c-1.8,2.1-3.5,3.7-6.7,3.2c0,1.7-0.8,3.6-2.5,5.5
		C175.7,339.5,173,340.1,171.1,340.1z"/>
</g>
<path class="st4" d="M196.3,377.8h93.3c7.1,0,13.2-5.2,14.3-12.2l9-54.8c1.4-8.8-5.4-16.9-14.3-16.9h-93.3
	c-7.1,0-13.2,5.2-14.3,12.2l-9,54.8C180.6,369.8,187.4,377.8,196.3,377.8z"/>
<path class="st6" d="M239.2,335.9c0,6.2,5,11.3,11.3,11.3s11.3-5,11.3-11.3c0-6.2-5-11.3-11.3-11.3S239.2,329.6,239.2,335.9z"/>
<path class="st15" d="M161.2,346c-0.2,0-0.5-0.1-0.6-0.2l-27-22.3c-1.7,1.6-6.3,5.6-12.3,8.7c-4.4,2.2-8.6,3.4-12.5,3.5
	c-5,0.1-9.5-1.4-13.3-4.7c-4.4-3.7-6.7-9-7-15.8c-0.2-5.3,0.9-11.6,3.2-18.6c3.9-11.8,10.2-21.9,10.3-22c0.3-0.5,0.9-0.6,1.4-0.3
	c0.5,0.3,0.6,0.9,0.3,1.4c-0.1,0.1-6.2,10-10.1,21.6c-2.3,6.8-3.3,12.8-3.1,17.8c0.2,6.2,2.3,11,6.2,14.3c3.4,2.8,7.2,4.2,11.4,4.2
	c3.7,0,7.8-1.1,12.2-3.3c7.1-3.6,12.4-8.9,12.5-8.9c0.4-0.4,1-0.4,1.4-0.1l27.7,22.8c0.4,0.4,0.5,1,0.1,1.4
	C161.8,345.9,161.5,346,161.2,346z"/>
<path class="st15" d="M60.2,340.4c-4.7,0.9-9,2.9-12.5,5.7c1.8,4.4,4.4,9,6.1,11.4C64.2,373.1,78.7,379,93,380.7
	c2.2-5.2,2.9-11,1.7-17C91.6,347.8,76.2,337.3,60.2,340.4z"/>
<path class="st0" d="M270.8,237.5c0,2.4-1.9,4.3-4.3,4.3s-4.3-1.9-4.3-4.3s1.9-4.3,4.3-4.3S270.8,235.1,270.8,237.5z"/>
<path class="st0" d="M153.8,348.5c0,2.4-1.9,4.3-4.3,4.3c-2.4,0-4.3-1.9-4.3-4.3s1.9-4.3,4.3-4.3
	C151.9,344.2,153.8,346.1,153.8,348.5z"/>
<g>
	<path class="st10" d="M226.2,195.1c1.5-3.6,5.9-3.8,8.8-1.6c1.5,1.1,3.4,3.4,5.1,5.4c1,1.2,3,0.6,3-1c0.5-17,1.5-22.6,5.9-22.2
		c2.7,0.2,4.2,2.7,4.4,7.3c1.3-6.4,4.2-9.3,7.4-8.5c3,0.7,3.9,4.2,2.9,9.4c1.5-4.2,4.8-5,6.6-4.4c3.1,1,3.2,5.2,2.1,8.6
		c-1.1,3.4-5.3,15.2-5.3,15.2c3.8-6.2,6.1-13.1,11.4-10.3c5.2,2.8-1.7,15.2-3.5,18.8s-1.7,17.4-1.7,17.4l-38.6-1.9l0.4-6.1
		l-1.6-11.3C232,207.2,224.7,198.7,226.2,195.1z"/>
	<path class="st11" d="M255.3,215c-0.6,0-1-0.5-1-1c0.1-4.8-1.2-8.4-3.7-10.7c-3.8-3.4-9.4-2.7-9.5-2.7c-0.6,0.1-1.1-0.3-1.1-0.9
		c-0.1-0.6,0.3-1.1,0.9-1.1c0.3,0,6.5-0.8,11.1,3.2c3,2.7,4.5,6.8,4.4,12.2C256.3,214.5,255.9,215,255.3,215z"/>
	<path class="st11" d="M250.5,201.4c-0.7-0.1-1.1-0.6-1-1.2l2.9-17.3c0.1-0.6,0.6-0.9,1.2-0.8c0.6,0.1,0.9,0.6,0.8,1.2l-2.9,17.3
		C251.4,201,251,201.4,250.5,201.4z"/>
	<path class="st11" d="M260.6,203.9c-0.7-0.1-1.1-0.6-1-1.2l3.1-19c0.1-0.6,0.6-0.9,1.2-0.8c0.6,0.1,0.9,0.6,0.8,1.2l-3.1,19
		C261.6,203.6,261.1,203.9,260.6,203.9z"/>
	<path class="st11" d="M267.2,206.5c-0.7-0.1-1.1-0.6-1-1.2l1-6.1c0.1-0.6,0.6-0.9,1.2-0.8c0.6,0.1,0.9,0.6,0.8,1.2l-1,6.1
		C268.1,206.2,267.7,206.5,267.2,206.5z"/>
	<path class="st15" d="M273.2,230.1c-0.1,0-38.7-1.9-38.7-1.9c-0.6,0-1-0.5-1-1.1s0.5-1,1.1-1l38.6,1.9c0.6,0,1,0.5,1,1.1
		C274.2,229.6,273.8,230.1,273.2,230.1z"/>
</g>
<g>
	<g>
		<rect x="367.9" y="63.2" class="st2" width="43.5" height="1.2"/>
		<rect x="367.9" y="65.7" class="st2" width="34.7" height="1.2"/>
		<rect x="367.9" y="68.3" class="st2" width="19.1" height="1.2"/>
	</g>
	<g>
		<rect x="367.9" y="84.1" class="st2" width="43.5" height="1.2"/>
		<rect x="367.9" y="86.6" class="st2" width="34.7" height="1.2"/>
		<rect x="367.9" y="89.2" class="st2" width="19.1" height="1.2"/>
	</g>
	<g>
		<rect x="367.9" y="105" class="st2" width="43.5" height="1.2"/>
		<rect x="367.9" y="107.6" class="st2" width="34.7" height="1.2"/>
		<rect x="367.9" y="110.1" class="st2" width="19.1" height="1.2"/>
	</g>
	<g>
		<path class="st2" d="M364.1,73.6h-14.4c-0.3,0-0.6-0.2-0.6-0.5V59.6c0-0.3,0.2-0.5,0.6-0.5h14.4c0.3,0,0.6,0.2,0.6,0.5v13.5
			C364.6,73.4,364.4,73.6,364.1,73.6z M350.2,72.6h13.3V60.1h-13.3V72.6z"/>
	</g>
	<g>
		<path class="st2" d="M364.1,94.5h-14.4c-0.3,0-0.6-0.2-0.6-0.5V80.5c0-0.3,0.2-0.5,0.6-0.5h14.4c0.3,0,0.6,0.2,0.6,0.5V94
			C364.6,94.3,364.4,94.5,364.1,94.5z M350.2,93.5h13.3V81h-13.3V93.5z"/>
	</g>
	<g>
		<path class="st2" d="M364.1,115.4h-14.4c-0.3,0-0.6-0.2-0.6-0.5v-13.5c0-0.3,0.2-0.5,0.6-0.5h14.4c0.3,0,0.6,0.2,0.6,0.5v13.5
			C364.6,115.2,364.4,115.4,364.1,115.4z M350.2,114.4h13.3v-12.5h-13.3V114.4z"/>
	</g>
	<g>
		<path class="st15" d="M356,113.1c-0.3,0-0.7-0.1-0.9-0.3l-7.4-6.8c-0.5-0.5-0.5-1.2,0-1.7s1.3-0.5,1.8,0l6.3,5.8l9.1-11.4
			c0.4-0.5,1.2-0.6,1.8-0.2c0.6,0.4,0.7,1.2,0.3,1.7l-10,12.5C356.8,112.9,356.5,113.1,356,113.1C356.1,113.1,356,113.1,356,113.1z"
			/>
	</g>
	<g>
		<path class="st15" d="M356,71.3c-0.3,0-0.7-0.1-0.9-0.3l-7.4-6.8c-0.5-0.5-0.5-1.2,0-1.7s1.3-0.5,1.8,0l6.3,5.8l9.1-11.4
			c0.4-0.5,1.2-0.6,1.8-0.2c0.6,0.4,0.7,1.2,0.3,1.7l-10,12.5C356.8,71.1,356.5,71.2,356,71.3C356.1,71.3,356,71.3,356,71.3z"/>
	</g>
	<g>
		<path class="st15" d="M356,91.8c-0.3,0-0.7-0.1-0.9-0.3l-7.4-6.8c-0.5-0.5-0.5-1.2,0-1.7s1.3-0.5,1.8,0l6.3,5.8l9.1-11.4
			c0.4-0.5,1.2-0.6,1.8-0.2c0.6,0.4,0.7,1.2,0.3,1.7l-10,12.5C356.8,91.6,356.5,91.8,356,91.8C356.1,91.8,356,91.8,356,91.8z"/>
	</g>
</g>
<polygon class="st17" points="309,104.1 314.5,98.5 331.3,98.5 331.3,126.5 309,126.5 "/>
<polygon class="st5" points="314.5,104.1 309,104.1 314.5,98.5 "/>
<polygon class="st6" points="328.4,117.6 321.3,110.8 321.3,120.6 323.8,119.2 325.3,122.7 327.3,121.9 325.8,118.3 "/>
<g>
	<path class="st5" d="M516.7,63.5h-49.6c-0.5,0-0.9,0.4-0.9,0.8v18.5c0,0.5,0.4,0.8,0.9,0.8h53.3V66.9
		C520.3,65,518.7,63.5,516.7,63.5z"/>
	<polygon class="st17" points="513,90.4 513,83.7 520.3,83.7 	"/>
	<polyline class="st18" points="483.2,69.7 476.3,76 472.8,72.8 	"/>
	<polyline class="st18" points="498.5,69.7 491.5,76 488.1,72.8 	"/>
	<polyline class="st19" points="513.7,69.7 506.8,76 503.3,72.8 	"/>
</g>
<g>
	<g>
		<path class="st2" d="M260.6,157.2h-18.1c-0.1,0-0.1,0.1-0.1,0.1c0,0.1,0.1,0.1,0.1,0.1h18.1c0.1,0,0.1-0.1,0.1-0.1
			C260.7,157.2,260.6,157.2,260.6,157.2z"/>
		<path class="st2" d="M260.6,152h-18.1c-0.1,0-0.1,0.1-0.1,0.1c0,0.1,0.1,0.1,0.1,0.1h18.1c0.1,0,0.1-0.1,0.1-0.1
			C260.7,152,260.6,152,260.6,152z"/>
	</g>
	<g>
		<path class="st2" d="M260.6,162.3h-18.1c-0.1,0-0.1,0.1-0.1,0.1l0.1,0.1h18.1c0.1,0,0.1-0.1,0.1-0.1L260.6,162.3z"/>
	</g>
	<circle class="st20" cx="247.2" cy="157.4" r="1.7"/>
	<circle class="st2" cx="257" cy="152.1" r="1.7"/>
	<circle class="st21" cx="254.3" cy="162.4" r="1.7"/>
</g>
<polygon class="st2" points="353.1,132.1 238.5,132.1 238.5,139.5 353.1,139.5 353.1,132.2 "/>
<ellipse class="st6" cx="243.2" cy="135.9" rx="1.7" ry="1.6"/>
<ellipse class="st6" cx="248.5" cy="135.9" rx="1.7" ry="1.6"/>
<ellipse class="st6" cx="253.8" cy="135.9" rx="1.7" ry="1.6"/>
</svg>
